<?xml version="1.0" encoding="UTF-8" standalone="no"?>
<svg
   version="1.1"
   viewBox="-5 -10 74.171875 88.8591"
   id="svg2"
   sodipodi:docname="fair.svg"
   width="74.171875"
   height="88.8591"
   inkscape:version="1.4 (e7c3feb1, 2024-10-09)"
   xmlns:inkscape="http://www.inkscape.org/namespaces/inkscape"
   xmlns:sodipodi="http://sodipodi.sourceforge.net/DTD/sodipodi-0.dtd"
   xmlns="http://www.w3.org/2000/svg"
   xmlns:svg="http://www.w3.org/2000/svg">
  <defs
     id="defs2" />
  <sodipodi:namedview
     id="namedview2"
     pagecolor="#ffffff"
     bordercolor="#000000"
     borderopacity="0.25"
     inkscape:showpageshadow="2"
     inkscape:pageopacity="0.0"
     inkscape:pagecheckerboard="0"
     inkscape:deskcolor="#d1d1d1"
     inkscape:zoom="7.4740741"
     inkscape:cx="37.061447"
     inkscape:cy="51.912785"
     inkscape:window-width="2560"
     inkscape:window-height="1387"
     inkscape:window-x="0"
     inkscape:window-y="25"
     inkscape:window-maximized="1"
     inkscape:current-layer="svg2" />
  <path
     d="m 57.2609,5.136087 c 2.7852,0.03906 11.875,0.51172 11.875,4.8242 0,1.043 -0.5625,2.5039 -3.2305,3.5195 -2.0469,0.78125 -5.3945,1.2891 -8.8906,1.2891 -1.6719,0 -3.3789,-0.11719 -4.9922,-0.375 v 3.4453 c 0,0.50781 -0.17969,0.94531 -0.53906,1.3047 l -19.512,19.512 c -0.71875,0.71875 -1.8906,0.71875 -2.6055,0 l -12.039,-12.039 c -0.71875,-0.71875 -0.71875,-1.8906 0,-2.6055 l 19.512,-19.512 c 0.35938,-0.35937 0.79688,-0.53906 1.3047,-0.53906 h 11.93 c 1.0742,0 1.9531,0.87891 1.9531,1.9531 v 2.8242 c -2.2031,-0.41016 -3.8945,-1.0938 -4.6523,-1.9492 -1.3555,-1.4492 -3.1367,0.21094 -1.8242,1.6211 0.67578,0.64453 1.8633,1.3477 3.7891,2.0039 2.1914,0.74609 5.2031,1.2695 8.1055,1.2344 1.8359,-0.01953 3.9062,-0.15234 5.5781,-0.52734 3.9883,-0.89062 3.0547,-1.7188 -0.75,-2.4141 -1.4492,-0.26562 -3.3164,-0.46094 -4.8828,-0.48438 -1,-0.01563 -1.9531,-0.52734 -1.9375,-1.5273 0.01562,-1 0.82031,-1.5664 1.8203,-1.5547 z m -55.422,18.434 5.4102,4.7656 c 0.33594,0.29297 0.76172,0.45312 1.1992,0.45312 0.09375,0 0.19141,-0.0078 0.28516,-0.02344 0.53125,-0.08594 1,-0.40234 1.2773,-0.86719 l 3.6914,-6.2578 c 0.50781,-0.86328 0.22266,-1.9727 -0.64063,-2.4844 -0.85937,-0.50781 -1.9727,-0.22266 -2.4844,0.64063 l -1.1875,2.0156 c -0.05469,-0.6875 -0.08203,-1.375 -0.08203,-2.0664 0,-14.402 11.715,-26.117 26.117,-26.117 6.4766,0 12.684,2.3867 17.488,6.7188 0.74219,0.67188 1.8906,0.61328 2.5586,-0.13281 0.67188,-0.74219 0.61328,-1.8906 -0.12891,-2.5625 -5.4727,-4.9336 -12.547,-7.6523 -19.918,-7.6523 -16.402,0 -29.746,13.344 -29.746,29.742 0,0.82422 0.03516,1.6445 0.10156,2.4648 l -1.5469,-1.3633 c -0.75391,-0.66016 -1.8984,-0.58984 -2.5586,0.16016 -0.66016,0.75391 -0.58984,1.8984 0.16406,2.5586 z m 33.586,22.297 c -8.6016,0 -16.648,-4.2383 -21.535,-11.336 -0.56641,-0.82422 -1.6953,-1.0312 -2.5234,-0.46484 -0.82422,0.56641 -1.0312,1.6953 -0.46484,2.5234 5.5586,8.0781 14.727,12.906 24.523,12.906 7.7266,0 15.047,-2.9492 20.613,-8.3008 4.5625,-4.3906 7.5625,-10.016 8.6602,-16.145 l 1.1367,1.7109 c 0.55469,0.83594 1.6797,1.0586 2.5117,0.50781 0.83594,-0.55469 1.0586,-1.6797 0.50781,-2.5156 l -3.9922,-6.0039 c -0.30078,-0.44922 -0.78516,-0.74219 -1.3203,-0.80078 -0.53516,-0.05469 -1.0703,0.13281 -1.457,0.50781 l -5.1875,5.0859 c -0.71484,0.69922 -0.72656,1.8477 -0.02344,2.5664 0.69922,0.71484 1.8477,0.72656 2.5625,0.02344 l 1.6797,-1.6484 c -2.2188,12.246 -12.879,21.383 -25.691,21.383 z m 22.762,7.5312 c -4.1914,1.6484 -9.1328,3.2969 -12.875,4.3711 -1.2812,3.9492 -6.3203,5.3281 -11.605,5.7188 -3.3398,0.24609 -6.7227,0.10156 -9.1367,-0.0039 -0.76172,-0.03125 -1.4297,-0.0625 -1.8828,-0.07031 -0.90234,-0.01563 -1.6172,-0.76172 -1.6016,-1.6641 0.01563,-0.90234 0.76172,-1.6172 1.6641,-1.6016 0.59766,0.01172 1.2305,0.03906 1.9531,0.07031 2.3477,0.10156 5.6406,0.24219 8.7656,0.01172 6.0781,-0.44922 7.5508,-2.2617 7.3945,-4.0078 -0.14453,-1.6367 -1.6055,-3.2305 -5.0781,-3.2617 -6.2773,-0.05859 -11.926,-0.55859 -18.246,-1.2227 -9.4023,-0.65234 -16.691,7.1055 -22.539,13.578 l 13.543,13.543 c 7.4883,-6.082 10.875,-4.8086 17.09,-4.9062 2.8867,-0.04688 6.1641,0.51562 11.141,-1.7227 l 26.578,-12.09 c 2.0859,-1.0195 4.4609,-2.3672 5.4531,-3.1641 1.5156,-3.6562 -1.5977,-7.125 -10.613,-3.582 z"
     fill-rule="evenodd"
     id="path1"
     style="fill:#80cc1a;fill-opacity:1" />
</svg>
